<?xml version="1.0" encoding="utf-8"?>
<!-- Generator: Adobe Illustrator 23.0.1, SVG Export Plug-In . SVG Version: 6.00 Build 0)  -->
<svg version="1.1" id="Ebene_1" xmlns="http://www.w3.org/2000/svg" xmlns:xlink="http://www.w3.org/1999/xlink" x="0px" y="0px"
	 width="131.74px" height="62.25px" viewBox="0 0 131.74 62.25" enable-background="new 0 0 131.74 62.25" xml:space="preserve">
<g>
	<path fill="#1A2732" d="M131.549,26.073c-0.25-0.724-0.659-1.33-1.215-1.769c-0.583-0.489-1.306-0.809-2.174-0.987
		c-0.869-0.203-1.811-0.298-2.889-0.298c-0.471,0-0.979,0.035-1.516,0.084c-0.533,0.022-1.044,0.094-1.565,0.154
		c-0.494,0.06-0.965,0.13-1.4,0.202c-0.373,0.073-0.955,0.155-1.204,0.225l-0.685,3.837c0.709-0.082,1.776-0.164,2.645-0.189
		c0.895-0.012,1.823-0.036,2.745-0.036c0.259,0,0.508,0.025,0.743,0.061c0.212,0.036,0.407,0.108,0.568,0.213
		c0.151,0.131,0.275,0.285,0.337,0.486c0.086,0.227,0.086,0.476,0.011,0.809l-0.123,0.771h-1.277c-2.433,0-4.367,0.346-5.784,1
		c-1.439,0.665-2.284,1.793-2.595,3.409l-0.034,0.344c-0.175,0.927-0.175,1.665,0.025,2.27c0.198,0.63,0.496,1.129,0.918,1.509
		c0.447,0.368,0.918,0.641,1.488,0.795c0.557,0.178,1.128,0.251,1.725,0.251c0.806,0,1.611-0.13,2.345-0.404
		c0.756-0.249,1.466-0.57,2.112-0.949l-0.225,1.103h5.275l1.811-10.098C131.81,27.748,131.771,26.834,131.549,26.073
		 M125.022,35.079c-0.271,0.13-0.595,0.202-0.971,0.285c-0.382,0.071-0.753,0.118-1.101,0.118c-0.411,0-0.76-0.084-1.021-0.251
		c-0.259-0.153-0.356-0.449-0.259-0.925l0.052-0.273c0.086-0.582,0.322-0.986,0.681-1.212c0.362-0.25,0.895-0.369,1.648-0.369h1.442
		L125.022,35.079z"/>
	<path fill="#1A2732" d="M79.791,24.304c-0.586-0.489-1.279-0.809-2.159-0.987c-0.867-0.203-1.836-0.298-2.878-0.298
		c-0.497,0-0.984,0.035-1.539,0.084c-0.533,0.022-1.04,0.094-1.54,0.154c-0.508,0.06-0.965,0.13-1.39,0.202
		c-0.395,0.073-0.994,0.155-1.227,0.225l-0.673,3.837c0.699-0.082,1.754-0.164,2.633-0.189c0.882-0.012,1.824-0.036,2.769-0.036
		c0.236,0,0.47,0.025,0.706,0.061c0.249,0.036,0.435,0.108,0.594,0.213c0.137,0.131,0.261,0.285,0.31,0.486
		c0.077,0.227,0.077,0.476,0.014,0.809l-0.126,0.771h-1.263c-2.434,0-4.37,0.346-5.797,1c-1.426,0.665-2.271,1.793-2.57,3.409
		l-0.074,0.344c-0.149,0.927-0.135,1.664,0.05,2.27c0.196,0.63,0.51,1.129,0.944,1.509c0.409,0.368,0.906,0.641,1.438,0.795
		c0.572,0.178,1.142,0.251,1.75,0.251c0.808,0,1.601-0.13,2.356-0.404c0.746-0.249,1.453-0.57,2.087-0.949l-0.212,1.103h5.262
		l1.81-10.098c0.212-1.117,0.199-2.031-0.049-2.793C80.783,25.348,80.362,24.742,79.791,24.304 M74.493,35.079
		c-0.272,0.13-0.609,0.202-0.969,0.285c-0.395,0.071-0.743,0.118-1.104,0.118c-0.385,0-0.746-0.084-1.007-0.251
		c-0.286-0.153-0.359-0.449-0.286-0.925l0.063-0.273c0.09-0.582,0.325-0.986,0.686-1.212c0.333-0.25,0.905-0.369,1.648-0.369h1.439
		L74.493,35.079z"/>
	<path fill="#1A2732" d="M96.432,24.742c-0.508-0.523-1.155-0.951-1.937-1.261c-0.806-0.295-1.724-0.462-2.793-0.462
		c-1.203,0-2.341,0.143-3.361,0.405c-1.029,0.259-1.921,0.686-2.693,1.258c-0.796,0.594-1.453,1.365-1.986,2.281
		c-0.544,0.95-0.942,2.079-1.153,3.411l-0.322,1.783c-0.05,0.249-0.086,0.498-0.113,0.711c-0.023,0.238-0.036,0.441-0.036,0.64
		c0,0.964,0.211,1.807,0.583,2.509c0.371,0.724,0.858,1.307,1.466,1.795c0.607,0.484,1.29,0.83,2.073,1.068
		c0.766,0.213,1.562,0.333,2.392,0.333c1.243,0,2.36-0.06,3.375-0.191c1.03-0.142,2.036-0.345,3.018-0.629l0.643-3.66
		c-0.285,0.026-0.631,0.049-1.091,0.061c-0.484,0.036-0.992,0.071-1.539,0.095c-0.533,0.023-1.067,0.048-1.587,0.059
		c-0.532,0.012-0.982,0.012-1.39,0.012c-0.371,0-0.697-0.022-0.994-0.059c-0.283-0.035-0.544-0.118-0.743-0.213
		c-0.223-0.096-0.371-0.274-0.497-0.452c-0.109-0.202-0.16-0.475-0.16-0.819c0-0.227,0.013-0.511,0.086-0.832h9.135
		c0.173,0,0.319-0.06,0.445-0.155c0.162-0.119,0.249-0.261,0.285-0.438l0.299-1.616c0.023-0.262,0.074-0.499,0.11-0.761
		c0.029-0.285,0.029-0.537,0.029-0.809c0-0.796-0.139-1.533-0.374-2.244C97.326,25.859,96.953,25.241,96.432,24.742 M92.536,29.721
		h-4.342c0.173-0.762,0.471-1.413,0.852-1.913c0.425-0.499,1.032-0.762,1.838-0.762c0.686,0,1.167,0.156,1.389,0.441
		c0.276,0.298,0.411,0.676,0.411,1.164C92.684,28.959,92.635,29.305,92.536,29.721"/>
	<path fill="#1A2732" d="M114.398,24.456c-0.371-0.438-0.838-0.772-1.412-1.009c-0.594-0.237-1.316-0.367-2.146-0.367
		c-0.51,0-1.156,0.083-1.939,0.284c-0.793,0.168-1.697,0.57-2.739,1.213l0.159-0.702V23.78c0-0.321-0.159-0.439-0.496-0.439h-4.577
		l-0.173,0.879l-2.855,14.744h5.657l2.082-10.989c0.266-0.143,0.647-0.273,1.108-0.404c0.474-0.13,0.918-0.177,1.376-0.177
		c0.522,0,0.882,0.071,1.081,0.213c0.186,0.142,0.299,0.404,0.299,0.831c0,0.239-0.023,0.451-0.086,0.689
		c-0.027,0.204-0.101,0.452-0.126,0.69l-1.738,9.147h5.624l1.698-8.982c0.086-0.367,0.139-0.724,0.173-1.069
		c0.038-0.345,0.063-0.713,0.063-1.071c0-0.675-0.074-1.317-0.236-1.875C115.021,25.385,114.747,24.898,114.398,24.456"/>
	<path fill="#90CE00" d="M65.954,60.884c-7.976-9.836-13.685-19.507-17.212-29.357c-3.61-10.039-4.937-20.257-4.13-30.997
		c0-0.118-0.076-0.214-0.176-0.239l-1.264-0.285c-0.099-0.023-0.202,0.024-0.236,0.13c-3.822,8.269-9.765,15.649-17.434,21.779
		c-7.1,5.631-15.635,10.242-25.351,13.509c-0.086,0.021-0.163,0.117-0.15,0.225l0.161,1.412c0.028,0.121,0.114,0.204,0.235,0.204
		c0.869-0.026,1.664-0.026,2.46-0.026c7.335,0,14.418,0.679,25.341,4.004C40.763,45.06,53.051,52.116,64.664,62.19
		c0.049,0.025,0.1,0.06,0.163,0.06h0.011c0.076,0,0.125-0.035,0.151-0.082l0.965-1.021C66.017,61.086,66.03,60.943,65.954,60.884"/>
</g>
</svg>
