<?xml version="1.0" encoding="UTF-8" standalone="no"?>
<!-- Created with Inkscape (http://www.inkscape.org/) -->

<svg
   version="1.1"
   id="svg2"
   width="601.01331"
   height="183.66667"
   viewBox="0 0 601.01331 183.66667"
   sodipodi:docname="logo-ce-horizontal-es-quadri.eps"
   xmlns:inkscape="http://www.inkscape.org/namespaces/inkscape"
   xmlns:sodipodi="http://sodipodi.sourceforge.net/DTD/sodipodi-0.dtd"
   xmlns="http://www.w3.org/2000/svg"
   xmlns:svg="http://www.w3.org/2000/svg">
  <defs
     id="defs6" />
  <sodipodi:namedview
     id="namedview4"
     pagecolor="#ffffff"
     bordercolor="#000000"
     borderopacity="0.25"
     inkscape:showpageshadow="2"
     inkscape:pageopacity="0.0"
     inkscape:pagecheckerboard="0"
     inkscape:deskcolor="#d1d1d1" />
  <g
     id="g8"
     inkscape:groupmode="layer"
     inkscape:label="ink_ext_XXXXXX"
     transform="matrix(1.3333333,0,0,-1.3333333,0,183.66667)">
    <g
       id="g10"
       transform="scale(0.1)">
      <path
         d="m 2926.26,724.852 c 18.62,0 49.4,-2.661 69.54,-11.016 6.07,-2.668 8.36,-5.703 7.21,-11.777 l -3.42,-15.579 c -1.14,-4.558 -3.03,-6.464 -9.88,-5.703 -18.61,2.278 -41.41,4.942 -61.16,4.942 -51.68,0 -59.28,-41.797 -59.28,-91.192 0,-49.765 9.49,-88.906 59.28,-88.906 22.03,0 40.64,2.285 61.16,4.942 7.22,0.761 8.74,-1.141 10.27,-6.086 l 3.03,-14.43 c 1.52,-6.074 -0.38,-9.504 -6.45,-12.16 -18.63,-7.981 -51.68,-11.399 -70.3,-11.399 -84.72,0 -102.58,62.688 -102.58,127.278 0,64.968 15.96,131.086 102.58,131.086"
         style="fill:#5a5758;fill-opacity:1;fill-rule:nonzero;stroke:none"
         id="path12" />
      <path
         d="m 3112.08,623.402 c -32.29,0 -39.51,-20.515 -39.51,-60.027 0,-40.273 7.22,-60.027 39.14,-60.027 34.57,0 41.41,19.375 41.41,60.027 0,40.273 -6.46,60.027 -41.04,60.027 z m -0.37,-156.531 c -76.37,0 -81.3,55.852 -81.3,99.16 0,35.711 7.96,93.848 81.3,93.848 73.71,0 83.97,-49.016 83.97,-93.848 0,-43.308 -5.32,-99.16 -83.97,-99.16"
         style="fill:#5a5758;fill-opacity:1;fill-rule:nonzero;stroke:none"
         id="path14" />
      <path
         d="m 3498.14,469.906 h -27.36 c -5.32,0 -7.21,2.278 -7.21,7.219 v 107.91 c 0,28.113 -6.84,36.094 -25.84,36.094 -14.06,0 -36.86,-11.027 -48.63,-17.102 0,-3.797 0.38,-10.632 0.38,-19.375 V 477.125 c 0,-4.562 -1.53,-7.219 -7.22,-7.219 h -27.73 c -4.95,0 -6.47,2.278 -6.47,7.219 V 586.93 c 0,23.172 -6.07,34.199 -25.08,34.199 -13.3,0 -34.57,-9.5 -49,-17.102 V 477.125 c 0,-4.562 -1.9,-7.219 -7.23,-7.219 h -27.35 c -4.94,0 -6.85,2.278 -6.85,7.219 V 648.48 c 0,4.946 1.91,7.598 6.85,7.598 h 26.97 c 5.71,0 7.61,-3.035 7.61,-7.598 v -11.011 l 0.37,-0.383 c 14.82,10.254 35.72,21.648 56.62,22.414 22.03,0 40.28,-4.562 52.05,-26.594 18.99,14.055 42.55,26.594 66.87,26.594 50.14,0 55.09,-32.68 55.09,-70.664 V 477.125 c 0,-4.562 -1.53,-7.219 -6.84,-7.219"
         style="fill:#5a5758;fill-opacity:1;fill-rule:nonzero;stroke:none"
         id="path16" />
      <path
         d="m 3592.79,477.125 c 0,-4.18 -1.53,-7.219 -6.84,-7.219 h -26.97 c -5.33,0 -7.6,2.278 -7.6,7.219 v 171.738 c 0,5.325 2.27,7.215 7.6,7.215 h 26.97 c 5.31,0 6.84,-3.035 6.84,-7.215 z m -20.14,206.309 c -19.76,0 -22.42,11.027 -22.42,22.043 0,12.156 4.18,21.66 22.42,21.66 18.61,0 22.42,-8.742 22.42,-21.66 0,-11.782 -3.41,-22.043 -22.42,-22.043"
         style="fill:#5a5758;fill-opacity:1;fill-rule:nonzero;stroke:none"
         id="path18" />
      <path
         d="m 3702.22,466.871 c -19,0 -44.45,2.656 -58.89,8.359 -7.59,3.04 -9.12,6.458 -7.98,12.54 l 2.65,12.531 c 1.16,6.082 3.81,6.465 9.89,5.703 16.71,-2.656 41.03,-4.563 53.96,-4.563 24.32,0 34.18,6.465 34.18,21.661 0,17.48 -6.45,21.281 -30.39,24.699 -37.23,5.308 -69.9,13.301 -69.9,54.707 0,37.617 28.86,57.371 71.42,57.371 15.59,0 41.8,-2.277 57.76,-8.359 6.46,-2.657 9.12,-5.696 7.97,-11.395 l -3.03,-13.684 c -1.15,-5.312 -3.42,-6.074 -10.28,-5.312 -16.32,1.894 -37.59,4.18 -51.66,4.18 -24.31,0 -30.01,-6.844 -30.01,-21.282 0,-14.812 9.12,-16.714 32.3,-20.515 36.09,-5.324 68.77,-12.539 68.77,-57.754 0,-44.453 -37.62,-58.887 -76.76,-58.887"
         style="fill:#5a5758;fill-opacity:1;fill-rule:nonzero;stroke:none"
         id="path20" />
      <path
         d="m 3861.07,477.125 c 0,-4.18 -1.52,-7.219 -6.84,-7.219 h -26.97 c -5.33,0 -7.6,2.278 -7.6,7.219 v 171.738 c 0,5.325 2.27,7.215 7.6,7.215 h 26.97 c 5.32,0 6.84,-3.035 6.84,-7.215 z m -20.14,206.309 c -19.76,0 -22.42,11.027 -22.42,22.043 0,12.156 4.18,21.66 22.42,21.66 18.62,0 22.42,-8.742 22.42,-21.66 0,-11.782 -3.41,-22.043 -22.42,-22.043"
         style="fill:#5a5758;fill-opacity:1;fill-rule:nonzero;stroke:none"
         id="path22" />
      <path
         d="m 4035.09,739.293 c 4.18,-2.285 3.81,-5.32 1.53,-8.359 l -38.75,-53.196 c -1.92,-2.664 -3.81,-3.797 -7.23,-2.285 l -14.82,6.848 c -2.66,1.512 -3.79,3.418 -1.9,7.219 l 30.39,58.882 c 1.92,3.801 4.94,3.801 8.36,2.286 z m -49,-115.891 c -32.31,0 -39.53,-20.515 -39.53,-60.027 0,-40.273 7.22,-60.027 39.14,-60.027 34.57,0 41.42,19.375 41.42,60.027 0,40.273 -6.46,60.027 -41.03,60.027 z m -0.39,-156.531 c -76.37,0 -81.31,55.852 -81.31,99.16 0,35.711 7.99,93.848 81.31,93.848 73.71,0 83.96,-49.016 83.96,-93.848 0,-43.308 -5.31,-99.16 -83.96,-99.16"
         style="fill:#5a5758;fill-opacity:1;fill-rule:nonzero;stroke:none"
         id="path24" />
      <path
         d="m 4260.42,469.906 h -27.34 c -4.94,0 -7.23,2.278 -7.23,7.219 l 0.4,106.77 c 0,22.41 -5.34,37.234 -27.37,37.234 -15.19,0 -41.8,-12.156 -52.05,-17.102 V 477.125 c 0,-4.562 -1.89,-7.219 -7.23,-7.219 h -26.97 c -5.31,0 -7.22,2.278 -7.22,7.219 V 648.48 c 0,4.946 1.91,7.598 7.22,7.598 h 26.97 c 5.34,0 7.23,-2.652 7.23,-7.598 v -11.394 c 0.37,0 0.76,-0.383 1.13,-0.383 14.07,9.875 40.67,22.797 63.83,22.797 51.29,0 55.86,-33.812 55.86,-72.187 V 477.125 c 0,-4.562 -1.52,-7.219 -7.23,-7.219"
         style="fill:#5a5758;fill-opacity:1;fill-rule:nonzero;stroke:none"
         id="path26" />
      <path
         d="m 2824.29,314.602 c 0,4.929 2.29,7.589 7.6,7.589 h 139.82 c 4.55,0 7.21,-2.66 7.21,-7.211 v -23.57 c 0,-4.558 -1.89,-6.828 -7.6,-6.828 H 2867.6 v -65.363 h 91.95 c 4.94,0 7.59,-2.27 7.59,-6.828 v -23.559 c 0,-4.562 -1.89,-6.844 -7.59,-6.844 h -91.95 v -74.847 h 106.39 c 4.56,0 6.84,-2.282 6.84,-7.2113 V 76.7383 c 0,-4.9297 -1.91,-6.8281 -7.22,-6.8281 h -141.72 c -5.31,0 -7.6,2.2695 -7.6,6.8281 V 314.602"
         style="fill:#5a5758;fill-opacity:1;fill-rule:nonzero;stroke:none"
         id="path28" />
      <path
         d="m 3172.35,69.9102 h -26.98 c -5.7,0 -7.21,2.6484 -7.21,7.2109 v 11.7773 l -0.76,0.3829 c -14.83,-10.25 -40.67,-22.793 -63.83,-22.793 -51.3,0 -56.24,30.3906 -56.24,70.2927 V 248.48 c 0,4.559 1.9,7.598 7.22,7.598 h 27.73 c 4.94,0 6.85,-2.656 6.85,-7.598 V 141.711 c 0,-22.789 4.56,-37.231 27.73,-37.231 16.34,0 41.42,12.161 51.3,17.102 V 248.48 c 0,4.559 1.51,7.598 7.21,7.598 h 26.98 c 5.32,0 7.22,-2.656 7.22,-7.598 V 77.1211 c 0,-4.9414 -1.9,-7.2109 -7.22,-7.2109"
         style="fill:#5a5758;fill-opacity:1;fill-rule:nonzero;stroke:none"
         id="path30" />
      <path
         d="m 3268.88,77.1211 c 0,-4.5625 -1.89,-7.2109 -7.22,-7.2109 h -27.35 c -5.32,0 -7.23,2.2695 -7.23,7.2109 V 248.48 c 0,4.942 1.91,7.598 7.23,7.598 h 26.97 c 5.71,0 7.6,-3.039 7.6,-7.598 v -16.718 l 0.76,-0.762 c 11.4,10.648 38.38,23.559 56.23,26.98 4.95,1.141 8.36,0 9.13,-6.46 l 2.65,-25.461 c 0.38,-5.309 0.76,-7.598 -7.23,-9.11 -21.26,-4.179 -48.24,-11.777 -61.54,-17.48 V 77.1211"
         style="fill:#5a5758;fill-opacity:1;fill-rule:nonzero;stroke:none"
         id="path32" />
      <path
         d="m 3436.46,223.398 c -32.3,0 -39.51,-20.507 -39.51,-60.027 0,-40.269 7.21,-60.019 39.13,-60.019 34.58,0 41.42,19.367 41.42,60.019 0,40.277 -6.47,60.027 -41.04,60.027 z m -0.38,-156.5269 c -76.38,0 -81.31,55.8479 -81.31,99.1599 0,35.707 7.98,93.848 81.31,93.848 73.7,0 83.97,-49.008 83.97,-93.848 0,-43.312 -5.33,-99.1599 -83.97,-99.1599"
         style="fill:#5a5758;fill-opacity:1;fill-rule:nonzero;stroke:none"
         id="path34" />
      <path
         d="m 3648.86,221.129 c -15.56,0 -39.51,-11.027 -50.9,-17.098 v -94.992 c 17.09,-4.93 30.77,-6.457 43.7,-6.457 27.34,0 36.85,14.059 36.85,61.938 0,48.25 -9.51,56.609 -29.65,56.609 z m -3.03,-154.6407 c -12.53,0 -30.01,2.2812 -47.5,8.3633 l -0.37,-0.3828 V 7.58984 C 3597.96,3.41016 3596.81,0 3590.74,0 h -26.98 c -6.07,0 -7.22,2.66016 -7.22,7.58984 V 248.48 c 0,4.942 1.91,7.598 7.22,7.598 h 26.98 c 5.31,0 6.83,-3.039 6.83,-7.598 v -11.39 l 1.16,-0.77 c 13.67,9.512 37.98,22.801 60.02,22.801 49.78,0 62.69,-37.609 62.69,-94.98 0,-61.942 -15.59,-97.6527 -75.61,-97.6527"
         style="fill:#5a5758;fill-opacity:1;fill-rule:nonzero;stroke:none"
         id="path36" />
      <path
         d="m 3794.8,180.09 h 75.23 c 0,23.18 -6.09,45.601 -37.61,45.601 -28.13,0 -35.73,-17.101 -37.62,-45.601 z m -0.39,-28.488 c 1.15,-38.383 14.82,-49.02 45.98,-49.02 13.69,0 34.96,2.656 49.39,4.18 6.84,0.769 9.12,0.769 10.25,-6.461 l 2.29,-12.5315 c 1.13,-5.6992 0.39,-8.7382 -6.47,-11.789 -14.8,-5.6914 -42.53,-9.4922 -61.17,-9.4922 -72.56,0 -83.2,46.3517 -83.2,95.7417 0,36.86 6.84,97.649 80.94,97.649 68,0 80.15,-44.07 81.31,-85.109 0.37,-13.668 -3.42,-23.168 -18.64,-23.168 h -100.68"
         style="fill:#5a5758;fill-opacity:1;fill-rule:nonzero;stroke:none"
         id="path38" />
      <path
         d="m 4063.45,154.629 h -46.37 c -18.98,0 -31.15,-6.828 -31.15,-31.91 0,-16.719 5.71,-22.039 23.56,-22.039 16.34,0 39.51,9.5 53.96,17.859 z m 2.27,-63.0587 c -18.99,-14.4492 -44.46,-24.6992 -69.9,-24.6992 -40.28,0 -52.06,22.0273 -52.06,53.9489 -0.39,44.45 23.56,63.45 71.43,63.45 h 48.63 v 9.878 c 0,22.801 -8.36,30.782 -39.51,30.782 -12.54,0 -36.48,-1.91 -51.68,-3.418 -7.6,-1.141 -9.49,-0.762 -10.62,4.547 l -3.44,14.062 c -0.74,4.938 0.39,7.981 8.75,11.399 16.33,5.699 46.35,8.359 64.2,8.359 65.74,0 73.71,-26.969 73.71,-69.527 V 117.02 c 0,-15.579 1.91,-15.961 13.69,-17.4692 5.68,-0.3789 7.21,-1.5313 7.21,-5.711 V 77.8906 c 0,-4.1797 -2.66,-6.8398 -9.12,-7.9804 C 4110.93,68.7695 4104.86,68 4099.16,68 c -17.86,0 -28.87,5.3281 -32.68,23.1914 l -0.76,0.3789"
         style="fill:#5a5758;fill-opacity:1;fill-rule:nonzero;stroke:none"
         id="path40" />
      <path
         d="M 4507.62,69.9688 V 833.613 h -65.15 V 69.9688 h 65.15 v 0"
         style="fill:#254aa5;fill-opacity:1;fill-rule:nonzero;stroke:none"
         id="path42" />
      <path
         d="m 0,894.258 c 0,0 785.09,102.359 807.266,106.012 33.968,5.59 64.156,12.12 92.3,19.97 63.504,17.53 121.954,44.28 173.704,79.52 49.61,33.53 95.76,82.31 141.51,135.82 29.09,34.05 59.64,78.44 88.14,121.29 v 20.67 c -33.81,-50.43 -67.12,-93.88 -101.37,-132.25 -45.39,-50.91 -93.01,-92.56 -141.55,-123.81 -50.09,-32.51 -106.477,-56.78 -167.59,-72.14 -27.39,-6.95 -56.722,-12.59 -89.683,-17.21 -21.735,-3.08 -44.133,-5.45 -65.789,-7.75 C 728.285,1023.46 0,945.621 0,945.621 v -51.363"
         style="fill:#bdbcbc;fill-opacity:1;fill-rule:nonzero;stroke:none"
         id="path44" />
      <path
         d="m 1052.84,1026.91 c -49.14,-28.484 -105.902,-49.32 -168.684,-61.949 -26.82,-5.453 -56.047,-9.887 -89.383,-13.551 -19.57,-2.137 -39.293,-3.859 -59.043,-5.574 -10.656,-0.934 -21.312,-1.859 -31.929,-2.848 C 463.207,921.25 223.852,898.133 0,876.23 v -51.316 c 225.613,27.422 466.637,56.453 707.145,83.883 10.691,1.262 21.394,2.453 32.101,3.633 19.703,2.191 39.43,4.379 59.223,7.004 34.222,4.589 64.168,9.863 91.531,16.121 65.234,14.695 124.17,37.898 175.08,68.965 50.61,30.61 95.34,73.46 143.42,125.87 29.94,32.61 63.25,78.65 94.42,121.9 v 18.82 c -36.71,-50.19 -71.56,-92.35 -106.04,-128.32 -46.95,-49 -95.41,-87.98 -144.04,-115.88"
         style="fill:#bdbcbc;fill-opacity:1;fill-rule:nonzero;stroke:none"
         id="path46" />
      <path
         d="m 1190.24,1039.48 c -47.91,-44.273 -97.92,-79.093 -148.67,-103.511 -49.621,-24.117 -105.148,-41.039 -169.785,-51.754 -26.668,-4.449 -55.668,-8.09 -88.605,-11.11 L 0,808.301 V 757.09 l 696.176,74.437 90.078,9.547 c 33.922,3.946 63.519,8.379 90.461,13.547 66.937,12.723 124.355,31.754 175.515,58.141 52.3,26.648 104.56,70.988 153.14,117.938 32.61,31.48 64,72.14 97.55,114.79 v 17.06 c -38.75,-48.53 -75.75,-88.98 -112.68,-123.07"
         style="fill:#bdbcbc;fill-opacity:1;fill-rule:nonzero;stroke:none"
         id="path48" />
      <path
         d="m 1000.85,773.563 c -45.584,-25.708 -79.682,-40.516 -144.795,-47.36 -39.352,-4.269 -79.801,-6.305 -118.926,-8.265 -18.938,-0.954 -37.895,-1.903 -56.813,-3.102 -118.32,-6.816 -234.511,-14.371 -353.05,-22.16 L 0,670.469 V 619.27 l 330.531,30.558 c 106.809,9.656 230.922,20.789 352.09,30.75 l 88.078,6.867 c 34.383,2.668 62.582,5.496 88.703,8.93 67,8.711 124.235,22.348 174.948,41.656 54.6,20.586 106.09,52.532 157.66,90.086 46.5,33.856 110.84,100.629 110.91,101.504 v 18.09 c -42.07,-41.352 -66.29,-64.574 -112.33,-95.148 -55.03,-36.532 -148.86,-55.961 -189.74,-79"
         style="fill:#bdbcbc;fill-opacity:1;fill-rule:nonzero;stroke:none"
         id="path50" />
      <path
         d="M 1017.5,676.246 C 968.098,661.656 912.48,651.773 847.488,646.047 821.16,643.75 792.766,641.988 760.66,640.684 l -87.601,-3.871 C 455.387,626.621 238.777,615.227 0,602.496 v -51.078 c 228.082,17.793 451.605,35.102 675.035,51.121 l 87.344,6.012 c 33.715,2.226 61.664,4.652 87.965,7.637 66.629,7.507 123.617,19.097 174.196,35.41 56.06,17.89 110.69,43.832 162.39,77.093 38.19,24.497 76.37,53.7 115.99,88.547 v 0.895 c -43.66,-37.555 -85.27,-45.887 -126.74,-71.121 -50.77,-30.996 -104.16,-54.805 -158.68,-70.766"
         style="fill:#bdbcbc;fill-opacity:1;fill-rule:nonzero;stroke:none"
         id="path52" />
      <path
         d="M 1009.43,591.406 C 959.664,579.684 905.738,572.145 839.691,567.691 814.215,565.969 786.84,564.68 753.492,563.633 l -86.758,-3.11 C 448.129,552.191 226.477,542.617 0,532.715 v -51.047 c 225.016,15.469 445.77,30.52 668.438,44.562 L 755,531.457 c 33.941,1.945 61.598,3.938 87.012,6.273 67.269,6.25 122.308,15.364 173.198,28.645 57.1,14.82 112.6,36.551 164.98,64.578 40.49,21.633 80.88,47.637 122.73,78.945 v 21.836 c -45.23,-32.929 -88.62,-59.757 -132.06,-81.64 -51.42,-25.942 -105.72,-45.68 -161.43,-58.688"
         style="fill:#bdbcbc;fill-opacity:1;fill-rule:nonzero;stroke:none"
         id="path54" />
      <path
         d="m 1002.02,508.223 c -49.934,-9.211 -103.707,-15.09 -169.262,-18.508 -24.66,-1.274 -51.043,-2.192 -85.567,-2.988 L 0,466.336 V 415.34 l 662.59,34.844 85.832,4.39 c 33.496,1.582 60.898,3.227 86.234,5.196 66.453,5.121 121.121,12.484 172.024,23.207 57.79,12.086 113.87,29.734 166.69,52.418 42.54,18.175 85.17,40.355 129.55,67.32 v 20.496 c -47.43,-27.793 -92.51,-50.109 -137.28,-67.949 -52.1,-20.871 -107.14,-36.684 -163.62,-47.039"
         style="fill:#bdbcbc;fill-opacity:1;fill-rule:nonzero;stroke:none"
         id="path56" />
      <path
         d="m 996.152,424.691 c -91.683,-12.324 -186.07,-13.75 -277.347,-15.117 -20.922,-0.293 -41.852,-0.625 -62.75,-1.054 L 0,396.605 v -50.933 l 657.188,28.539 c 20.839,0.949 41.707,1.789 62.593,2.629 91.922,3.715 186.981,7.519 279.899,22.402 58.83,9.336 115.44,23.164 168.25,41.059 43.75,14.762 89.08,33.867 134.99,56.441 v 19.547 c -48.25,-22.648 -95.7,-41.461 -141.25,-55.562 -52.21,-16.25 -107.89,-28.375 -165.518,-36.036"
         style="fill:#bdbcbc;fill-opacity:1;fill-rule:nonzero;stroke:none"
         id="path58" />
      <path
         d="m 990.941,340.629 c -85.906,-7.149 -173.824,-7.168 -258.855,-7.168 -26.449,0 -52.902,0 -79.352,-0.211 C 435.395,332.289 219.773,330.488 0,328.578 v -50.957 c 209.324,7.168 431.402,14.649 653.473,21.289 26.355,0.879 52.726,1.559 79.129,2.25 85.488,2.172 173.886,4.43 260.675,13.879 60.643,6.551 115.803,16.16 168.653,29.34 46.1,11.41 93.44,26.641 140.99,44.941 v 18.711 c -49.08,-17.754 -97.99,-32.242 -145.62,-42.793 -52.34,-11.636 -106.77,-19.687 -166.359,-24.609"
         style="fill:#bdbcbc;fill-opacity:1;fill-rule:nonzero;stroke:none"
         id="path60" />
      <path
         d="m 987.621,257.762 c -35.789,-1.43 -74.547,-2.114 -118.504,-2.114 -16.613,0 -33.222,0.102 -49.793,0.25 l -169.094,2.071 c -115.382,0.863 -230.324,1.062 -338.156,1.16 L 0,258.832 v -50.934 l 312.816,8.262 c 107.45,2.649 222.727,5.41 337.735,7.5 l 168.953,2.238 c 46.348,0.75 107.508,2.114 169.461,6.223 60.705,3.957 115.955,10.051 168.905,18.57 47.65,7.688 96.34,18.028 145.05,30.528 v 18.082 c -50.04,-11.641 -99.78,-20.922 -148.04,-27.422 -52.65,-7.109 -107.36,-11.719 -167.259,-14.117"
         style="fill:#bdbcbc;fill-opacity:1;fill-rule:nonzero;stroke:none"
         id="path62" />
      <path
         d="M 817.359,177.68 648.844,179.5 C 433.867,182.539 219.086,186.512 0,190.629 v -50.957 c 209.125,1.406 430.613,3.008 649,5.488 l 168.602,2.52 c 56.812,0.98 112.453,2.011 168.711,3.91 115.847,3.75 219.627,11.949 316.607,24.879 v 17.722 c -97.35,-10.55 -201.28,-16.121 -317.197,-16.882 -56.09,-0.508 -112.227,-0.098 -168.364,0.371"
         style="fill:#bdbcbc;fill-opacity:1;fill-rule:nonzero;stroke:none"
         id="path64" />
      <path
         d="M 1302.92,87.6016 0,120.879 V 69.9688 h 1302.92 v 17.6328"
         style="fill:#bdbcbc;fill-opacity:1;fill-rule:nonzero;stroke:none"
         id="path66" />
      <path
         d="m 1185.6,943.254 c -49.49,-40.059 -87.72,-68.527 -148.3,-92.785 -52.749,-21.121 -109.413,-29.774 -174.152,-38.664 -41.656,-5.879 -85.195,-14.582 -126.785,-17.371 -17.101,-1.157 -34.215,-2.297 -51.273,-3.649 L 0,740.477 v -51.125 l 687.855,67.211 89.18,8.429 c 33.082,3.149 62.445,6.821 89.778,11.258 66.656,10.785 124.101,27.258 175.577,50.348 53.42,23.742 107.47,62.617 157.7,105.207 34.18,28.914 67.05,65.308 102.83,105.055 v 18.32 c -43.28,-45.08 -79.15,-81.098 -117.32,-111.926"
         style="fill:#bdbcbc;fill-opacity:1;fill-rule:nonzero;stroke:none"
         id="path68" />
      <path
         d="m 1857.41,1377.54 c 0,0 234.49,-373.47 277.36,-441.946 42.87,-68.465 91.88,-122.629 265.37,-159.426 173.49,-36.785 249.02,-54.164 249.02,-54.164 v -13.285 c 0,0 -110.24,23.508 -252.09,55.187 -141.85,31.68 -199.84,42.34 -264.51,132.313 -53.81,74.886 -275.15,393.101 -275.15,393.101 v 88.22"
         style="fill:#bdbcbc;fill-opacity:1;fill-rule:nonzero;stroke:none"
         id="path70" />
      <path
         d="m 1857.41,951.035 c 0,0 213.45,-223.676 275.15,-287.89 65.48,-68.122 149.35,-93.317 265.6,-114.082 110.98,-19.809 250.94,-42.688 250.94,-42.688 v -12.602 c 0,0 -131.43,21.536 -250.94,41.989 -117.16,20.07 -199.18,31.265 -266.29,93.097 -60.1,55.371 -274.46,256.387 -274.46,256.387 v 65.789"
         style="fill:#bdbcbc;fill-opacity:1;fill-rule:nonzero;stroke:none"
         id="path72" />
      <path
         d="m 1857.41,850.254 c 0,0 203,-188.5 275.15,-252.895 66.42,-59.261 120.24,-77.691 266.31,-103.586 146.09,-25.894 250.23,-41.992 250.23,-41.992 V 438.48 c 0,0 -132.11,21.704 -250.94,40.61 -118.8,18.887 -194.52,26.351 -265.6,83.973 -82.03,66.535 -275.15,225.601 -275.15,225.601 v 61.59"
         style="fill:#bdbcbc;fill-opacity:1;fill-rule:nonzero;stroke:none"
         id="path74" />
      <path
         d="m 1857.41,742.816 c 0,0 231.89,-183.953 275.22,-216.148 43.33,-32.191 100.66,-69.746 267,-93.789 164.95,-23.828 249.53,-35.688 249.53,-35.688 v -14.003 c 0,0 -149.58,21.703 -249.53,34.296 -99.94,12.602 -176.59,17.954 -266.3,77.7 -87.33,58.136 -275.92,190.918 -275.92,190.918 v 56.714"
         style="fill:#bdbcbc;fill-opacity:1;fill-rule:nonzero;stroke:none"
         id="path76" />
      <path
         d="m 1857.41,639.535 c 0,0 232.58,-154.859 276.62,-179.351 44.04,-24.496 95.76,-64.399 265.6,-86.094 169.86,-21.699 249.53,-31.488 249.53,-31.488 v -13.301 c 0,0 -140.49,15.39 -250.23,27.289 -109.73,11.91 -184.51,28.008 -266.3,72.793 -81.79,44.785 -275.22,157.808 -275.22,157.808 v 52.344"
         style="fill:#bdbcbc;fill-opacity:1;fill-rule:nonzero;stroke:none"
         id="path78" />
      <path
         d="m 1857.41,536.258 c 0,0 205.58,-111.836 275.15,-146.758 77.6,-38.969 144.71,-57.621 266.31,-72.09 119.41,-14.219 250.23,-28.012 250.23,-28.012 v -12.597 c 0,0 -120.96,12.949 -250.23,25.199 -128.15,12.148 -173.79,17.73 -266.31,58.789 -82.73,36.719 -275.15,126.441 -275.15,126.441 v 49.028"
         style="fill:#bdbcbc;fill-opacity:1;fill-rule:nonzero;stroke:none"
         id="path80" />
      <path
         d="m 1857.41,431.566 c 0,0 162.46,-69.566 276.62,-114.855 112.3,-44.563 198.04,-48.313 266.3,-56 30.06,-3.383 248.83,-25.902 248.83,-25.902 V 222.23 c 0,0 -130.71,10.489 -249.53,20.981 -118.83,10.488 -170.07,14.937 -266.3,46.891 -97.37,32.328 -275.92,94.589 -275.92,94.589 v 46.875"
         style="fill:#bdbcbc;fill-opacity:1;fill-rule:nonzero;stroke:none"
         id="path82" />
      <path
         d="m 1857.41,324.852 c 0,0 164.02,-50.84 275.86,-80.231 111.83,-29.402 214.58,-41.312 266.3,-44.793 51.72,-3.519 249.59,-19.59 249.59,-19.59 v -11.906 c 0,0 -112.54,7.668 -250.29,17.5 -111.37,7.93 -200.83,16.316 -266.31,30.797 -72.56,16.012 -275.15,64.16 -275.15,64.16 v 44.063"
         style="fill:#bdbcbc;fill-opacity:1;fill-rule:nonzero;stroke:none"
         id="path84" />
      <path
         d="m 1857.41,219.852 c 0,0 134.14,-23.133 275.86,-46.622 106.24,-17.621 250.23,-28.71 265.6,-29.421 15.39,-0.68 250.23,-16.789 250.23,-16.789 v -12.579 c 0,0 -150.32,7.77 -250.23,13.278 -104.08,5.761 -207.54,12.07 -266.31,18.203 -131.62,13.726 -275.15,31.898 -275.15,31.898 v 42.032"
         style="fill:#bdbcbc;fill-opacity:1;fill-rule:nonzero;stroke:none"
         id="path86" />
      <path
         d="m 1857.41,111.18 c 0,0 211.56,-7.95 275.86,-9.36 64.3,-1.379 515.83,-19.5895 515.83,-19.5895 V 69.9688 H 1857.41 V 111.18"
         style="fill:#bdbcbc;fill-opacity:1;fill-rule:nonzero;stroke:none"
         id="path88" />
      <path
         d="m 2398.87,718.438 c -191.51,41.292 -234.84,111.285 -267,154.679 -32.16,43.403 -274.46,397.543 -274.46,397.543 v -79.92 c 9.55,-12.5 216.94,-283.998 275.15,-358.912 65.62,-84.422 168.46,-103.586 266.31,-124.586 97.84,-20.996 250.29,-50.269 250.29,-50.269 v 11.199 c 0,0 -200.84,39.605 -250.29,50.266"
         style="fill:#bdbcbc;fill-opacity:1;fill-rule:nonzero;stroke:none"
         id="path90" />
      <path
         d="m 2398.87,662.445 c -157.26,30.797 -220.87,80.493 -267,140.688 -46.13,60.187 -274.46,361.147 -274.46,361.147 v -75.67 c 9.55,-11.34 218.43,-259.098 274.46,-323.27 65.36,-74.863 156.57,-94.492 267,-114.785 110.44,-20.301 250.23,-46.891 250.23,-46.891 v 11.191 c 0,0 -159.55,29.833 -250.23,47.59"
         style="fill:#bdbcbc;fill-opacity:1;fill-rule:nonzero;stroke:none"
         id="path92" />
      <path
         d="m 2398.87,604.359 c -163.54,31.719 -197.09,57.856 -266.31,133.684 -43.51,47.66 -265.78,310.117 -275.15,321.187 v -69.925 c 0,0 207.7,-221.539 274.46,-286.961 87.62,-85.86 169.85,-92.387 267,-109.883 97.16,-17.492 250.23,-45.496 250.23,-45.496 v 11.898 c 0,0 -184.81,32.805 -250.23,45.496"
         style="fill:#bdbcbc;fill-opacity:1;fill-rule:nonzero;stroke:none"
         id="path94" />
      <path
         d="M 1683.06,69.9688 V 833.586 H 541.559 V 69.9688 H 1683.06 v 0"
         style="fill:#254aa5;fill-opacity:1;fill-rule:nonzero;stroke:none"
         id="path96" />
      <path
         d="m 1124.68,725.012 h 39.72 l -32.01,-24.938 12.44,-39.558 -31.89,24.367 -31.89,-24.367 12.57,39.558 -32.26,24.938 h 39.58 l 12,38.582 11.74,-38.582 v 0"
         style="fill:#fff200;fill-opacity:1;fill-rule:nonzero;stroke:none"
         id="path98" />
      <path
         d="m 1126.08,215.77 h 39.77 l -32.01,-24.051 12.44,-38.02 -31.89,23.43 -31.89,-23.43 12.57,38.02 -32.33,24.051 h 39.66 l 11.99,37.128 11.69,-37.128 v 0"
         style="fill:#fff200;fill-opacity:1;fill-rule:nonzero;stroke:none"
         id="path100" />
      <path
         d="m 1252.05,249.5 h 39.78 l -32.02,-23.988 12.45,-38.082 -31.89,23.492 -31.89,-23.492 12.56,38.082 -32.32,23.988 h 39.65 l 12,37.129 11.68,-37.129 v 0"
         style="fill:#fff200;fill-opacity:1;fill-rule:nonzero;stroke:none"
         id="path102" />
      <path
         d="m 1252.05,691.043 h 39.78 l -32.02,-23.996 12.45,-38.074 -31.89,23.457 -31.89,-23.457 12.56,38.074 -32.32,23.996 h 39.65 l 12,37.121 11.68,-37.121 v 0"
         style="fill:#fff200;fill-opacity:1;fill-rule:nonzero;stroke:none"
         id="path104" />
      <path
         d="m 1345.57,597.523 h 39.71 l -32.01,-23.96 12.44,-38.11 -31.89,23.457 -31.82,-23.457 12.56,38.11 -32.33,23.96 h 39.59 l 12,37.129 11.75,-37.129 v 0"
         style="fill:#fff200;fill-opacity:1;fill-rule:nonzero;stroke:none"
         id="path106" />
      <path
         d="m 1345.57,341.738 h 39.71 l -32.01,-24.058 12.44,-38.059 -31.89,23.488 -31.82,-23.488 12.56,38.059 -32.33,24.058 h 39.59 l 12,37.137 11.75,-37.137 v 0"
         style="fill:#fff200;fill-opacity:1;fill-rule:nonzero;stroke:none"
         id="path108" />
      <path
         d="m 1380.61,471.59 h 39.79 l -32.03,-24.004 12.44,-38.086 -31.89,23.492 -31.88,-23.492 12.56,38.086 -32.32,24.004 h 39.59 l 12.05,37.094 11.69,-37.094 v 0"
         style="fill:#fff200;fill-opacity:1;fill-rule:nonzero;stroke:none"
         id="path110" />
      <path
         d="m 996.254,690.727 h 39.716 l -32.01,-24.028 12.44,-38.074 -31.892,23.488 -31.891,-23.488 12.574,38.074 -32.269,24.028 h 39.594 l 11.992,37.125 11.746,-37.125 v 0"
         style="fill:#fff200;fill-opacity:1;fill-rule:nonzero;stroke:none"
         id="path112" />
      <path
         d="m 905.328,597.215 h 39.777 l -32.015,-23.996 12.379,-38.082 -31.824,23.465 -31.887,-23.465 12.535,38.082 -32.301,23.996 h 39.653 l 12,37.121 11.683,-37.121 v 0"
         style="fill:#fff200;fill-opacity:1;fill-rule:nonzero;stroke:none"
         id="path114" />
      <path
         d="m 871.578,471.273 h 39.75 l -32.015,-24.019 12.433,-38.066 -31.883,23.414 -31.89,-23.414 12.57,38.066 -32.273,24.019 h 39.597 l 11.996,37.09 11.715,-37.09 v 0"
         style="fill:#fff200;fill-opacity:1;fill-rule:nonzero;stroke:none"
         id="path116" />
      <path
         d="m 905.328,341.43 h 39.777 l -32.015,-24.059 12.379,-38.07 -31.824,23.48 -31.887,-23.48 12.535,38.07 -32.301,24.059 h 39.653 l 12,37.074 11.683,-37.074 v 0"
         style="fill:#fff200;fill-opacity:1;fill-rule:nonzero;stroke:none"
         id="path118" />
      <path
         d="m 997.582,249.191 h 39.708 l -32.01,-24.011 12.38,-38.059 -31.832,23.469 -31.883,-23.469 12.571,38.059 -32.27,24.011 h 39.594 l 11.988,37.118 11.754,-37.118 v 0"
         style="fill:#fff200;fill-opacity:1;fill-rule:nonzero;stroke:none"
         id="path120" />
    </g>
  </g>
</svg>
